<svg width="44" height="44" fill="none" xmlns="http://www.w3.org/2000/svg"><circle cx="22" cy="22" r="22" fill="#fff"/><path fill-rule="evenodd" clip-rule="evenodd" d="M10.61 34.165c2.97 2.971 6.714 4.457 11.229 4.457 2.743 0 5.258-.628 7.544-1.886 2.314-1.285 4.128-3.028 5.443-5.229l-6.644-3.857c-.571 1.085-1.428 1.943-2.571 2.571-1.115.6-2.372.9-3.772.9-2.4 0-4.343-.742-5.83-2.228-1.457-1.515-2.185-3.486-2.185-5.915s.728-4.386 2.186-5.872c1.486-1.515 3.429-2.272 5.829-2.272 1.4 0 2.657.315 3.772.943 1.143.6 2 1.429 2.571 2.486l6.644-3.815c-1.315-2.171-3.129-3.9-5.444-5.186-2.314-1.286-4.829-1.929-7.543-1.929-4.515 0-8.258 1.5-11.23 4.5-2.943 2.973-4.415 6.687-4.415 11.145 0 4.457 1.472 8.186 4.415 11.187ZM34.221 26.4a3.422 3.422 0 1 0 0-6.844 3.422 3.422 0 0 0 0 6.844Z" fill="#18191F"/><path fill-rule="evenodd" clip-rule="evenodd" d="m26.078 31.08-.004.002c-1.271.685-2.69 1.017-4.235 1.017-2.62 0-4.825-.82-6.52-2.515l-.007-.007-.007-.006c-1.66-1.725-2.459-3.954-2.459-6.593s.8-4.858 2.466-6.557c1.694-1.727 3.902-2.565 6.527-2.565 1.547 0 2.968.348 4.24 1.062.982.519 1.796 1.197 2.423 2.034l4.937-2.835c-1.162-1.632-2.668-2.965-4.531-4-2.166-1.203-4.516-1.806-7.07-1.806-4.273 0-7.76 1.41-10.534 4.21-2.75 2.777-4.132 6.238-4.132 10.457 0 4.217 1.382 7.694 4.132 10.499 2.773 2.771 6.26 4.168 10.535 4.168 2.586 0 4.937-.591 7.07-1.764 1.866-1.037 3.375-2.384 4.539-4.043L28.51 28.97c-.627.861-1.44 1.564-2.428 2.107l-.004.002Zm1.846-2.985c-.56.878-1.331 1.586-2.313 2.126-1.115.6-2.372.9-3.772.9-2.4 0-4.343-.742-5.83-2.228-1.457-1.515-2.185-3.486-2.185-5.915s.728-4.386 2.186-5.872c1.486-1.515 3.429-2.272 5.829-2.272 1.4 0 2.657.315 3.772.943 1.045.549 1.852 1.29 2.419 2.22.053.087.104.176.152.266l6.644-3.815c-.17-.28-.348-.554-.535-.82-1.257-1.791-2.893-3.246-4.908-4.366-2.315-1.286-4.83-1.929-7.544-1.929-4.515 0-8.258 1.5-11.23 4.5-2.943 2.973-4.415 6.687-4.415 11.145 0 4.457 1.472 8.186 4.415 11.187 2.972 2.971 6.715 4.457 11.23 4.457 2.743 0 5.258-.628 7.544-1.886 2.018-1.12 3.655-2.59 4.913-4.406.185-.267.362-.54.53-.823l-6.644-3.857c-.08.153-.166.301-.258.445Zm6.298-2.673a2.444 2.444 0 1 0 0-4.889 2.444 2.444 0 0 0 0 4.89Zm3.422-2.444a3.422 3.422 0 1 1-6.844 0 3.422 3.422 0 0 1 6.845 0Z" fill="#18191F"/><path fill-rule="evenodd" clip-rule="evenodd" d="M10.61 33.187c2.97 2.972 6.714 4.458 11.229 4.458 2.743 0 5.258-.63 7.544-1.886 2.314-1.286 4.128-3.03 5.443-5.23l-6.644-3.857c-.571 1.086-1.428 1.943-2.571 2.572-1.115.6-2.372.9-3.772.9-2.4 0-4.343-.743-5.83-2.23C14.553 26.4 13.825 24.43 13.825 22s.728-4.386 2.186-5.872c1.486-1.514 3.429-2.272 5.829-2.272 1.4 0 2.657.315 3.772.943 1.143.6 2 1.429 2.571 2.486l6.644-3.814c-1.315-2.172-3.129-3.9-5.444-5.187C27.069 7 24.553 6.356 21.84 6.356c-4.515 0-8.258 1.5-11.23 4.5C7.666 13.828 6.194 17.542 6.194 22s1.472 8.187 4.415 11.187Zm23.612-7.765a3.422 3.422 0 1 0 0-6.844 3.422 3.422 0 0 0 0 6.844Z" fill="#8E00BA"/><path fill-rule="evenodd" clip-rule="evenodd" d="m26.078 30.102-.004.003c-1.271.684-2.69 1.017-4.235 1.017-2.62 0-4.825-.82-6.52-2.516l-.007-.006-.007-.007c-1.66-1.725-2.459-3.954-2.459-6.593s.8-4.858 2.466-6.557c1.694-1.727 3.902-2.564 6.527-2.564 1.547 0 2.968.347 4.24 1.061.982.519 1.796 1.197 2.423 2.034l4.937-2.835c-1.162-1.632-2.668-2.965-4.531-4-2.166-1.203-4.516-1.806-7.07-1.806-4.273 0-7.76 1.41-10.534 4.211C8.554 14.32 7.172 17.781 7.172 22c0 4.217 1.382 7.694 4.132 10.499 2.773 2.771 6.26 4.168 10.535 4.168 2.586 0 4.937-.591 7.07-1.764 1.866-1.037 3.375-2.383 4.539-4.043l-4.938-2.867c-.627.861-1.44 1.564-2.428 2.107l-.004.002Zm1.846-2.985c-.56.878-1.331 1.587-2.313 2.127-1.115.6-2.372.9-3.772.9-2.4 0-4.343-.743-5.83-2.23C14.553 26.4 13.825 24.43 13.825 22s.728-4.386 2.186-5.872c1.486-1.514 3.429-2.272 5.829-2.272 1.4 0 2.657.315 3.772.943 1.045.55 1.852 1.29 2.419 2.22.053.088.104.176.152.266l6.644-3.814c-.17-.281-.348-.555-.535-.82-1.257-1.792-2.893-3.247-4.908-4.367-2.315-1.285-4.83-1.928-7.544-1.928-4.515 0-8.258 1.5-11.23 4.5C7.666 13.828 6.194 17.542 6.194 22s1.472 8.187 4.415 11.187c2.972 2.972 6.715 4.458 11.23 4.458 2.743 0 5.258-.63 7.544-1.886 2.018-1.121 3.655-2.59 4.913-4.407.185-.266.362-.54.53-.823l-6.644-3.857c-.08.153-.166.302-.258.445Zm6.298-2.672a2.444 2.444 0 1 0 0-4.89 2.444 2.444 0 0 0 0 4.89ZM37.644 22a3.422 3.422 0 1 1-6.844 0 3.422 3.422 0 0 1 6.845 0Z" fill="#8E00BA"/></svg>
